<?xml version="1.0" standalone="no"?>
<!DOCTYPE svg PUBLIC "-//W3C//DTD SVG 20010904//EN"
 "http://www.w3.org/TR/2001/REC-SVG-20010904/DTD/svg10.dtd">
<svg version="1.0" xmlns="http://www.w3.org/2000/svg"
 width="772.000000pt" height="772.000000pt" viewBox="0 0 772.000000 772.000000"
 preserveAspectRatio="xMidYMid meet">
<metadata>
Created by potrace 1.11, written by Peter Selinger 2001-2013
</metadata>
<g transform="translate(0.000000,772.000000) scale(0.100000,-0.100000)"
fill="#000000" stroke="none">
<path d="M3958 7055 c-1 -1 -21 -6 -43 -9 -22 -4 -51 -9 -65 -11 -14 -3 -31
-6 -37 -7 -7 -1 -13 -5 -13 -10 0 -4 -3 -7 -7 -6 -5 1 -18 -3 -29 -10 -12 -6
-24 -8 -28 -5 -3 3 -6 1 -6 -5 0 -7 -5 -12 -11 -12 -34 0 -229 -172 -229 -201
0 -5 -44 14 -97 40 -171 85 -316 122 -483 122 -63 -1 -82 -3 -145 -18 -16 -4
-33 -6 -36 -6 -15 4 -63 -50 -74 -84 -15 -44 -12 -137 5 -159 7 -7 9 -14 6
-14 -12 0 35 -63 78 -104 35 -33 108 -75 133 -77 5 -1 15 -5 25 -10 27 -15
115 -22 268 -23 124 -1 144 -3 141 -16 -34 -132 -39 -161 -47 -244 -4 -47 -17
-93 -39 -140 -31 -68 -71 -175 -80 -213 -3 -10 -9 -38 -16 -63 -6 -25 -13 -56
-15 -70 -2 -14 -7 -37 -10 -52 -3 -14 -1 -28 3 -31 17 -11 37 12 39 46 4 49
40 150 82 230 19 37 36 66 37 65 2 -2 6 -19 9 -38 7 -34 13 -60 16 -70 1 -3 2
-8 1 -12 -2 -16 79 -191 91 -196 4 -2 8 -8 8 -13 0 -10 18 -33 72 -94 41 -46
116 -90 168 -101 101 -19 140 -22 146 -12 3 5 9 6 14 3 25 -16 176 40 255 95
79 54 233 219 218 234 -3 3 -2 6 4 6 9 0 96 161 98 180 1 3 11 31 23 62 12 32
24 70 26 84 3 15 11 32 17 38 9 8 10 8 5 -1 -4 -7 -2 -13 4 -13 6 0 8 -4 5
-10 -3 -5 -1 -10 4 -10 6 0 11 -8 11 -18 0 -10 5 -23 12 -30 7 -7 8 -12 4 -12
-5 0 -3 -6 3 -13 6 -8 13 -44 15 -80 3 -37 8 -72 11 -77 3 -6 3 -10 -2 -10 -4
0 -9 -26 -9 -58 -2 -87 -7 -133 -16 -138 -4 -3 -1 -18 7 -34 8 -16 11 -31 6
-34 -8 -6 -25 -64 -22 -79 1 -4 -3 -16 -8 -25 -5 -9 -12 -42 -15 -72 -4 -30
-8 -67 -10 -82 -2 -16 1 -28 5 -28 5 0 4 -11 -1 -24 -5 -13 -7 -26 -4 -28 2
-3 7 -25 10 -49 20 -145 135 -317 239 -356 63 -23 71 -26 90 -30 33 -8 187 -8
230 0 76 13 96 18 138 33 107 40 206 98 294 172 59 49 133 120 133 128 0 3 11
17 25 32 14 15 40 50 58 77 17 28 34 52 37 55 10 9 90 180 91 195 0 2 7 21 15
40 42 101 52 303 20 393 -8 23 -13 42 -10 42 8 0 -54 113 -79 142 -54 64 -80
88 -97 88 -5 0 -10 4 -10 9 0 13 -139 57 -177 56 -18 0 -33 2 -33 5 0 11 -171
-5 -215 -21 -16 -6 -41 -13 -55 -15 -33 -7 -220 -105 -220 -116 0 -4 -5 -8
-11 -8 -6 0 -16 -6 -24 -12 -7 -7 -32 -29 -56 -48 -59 -48 -114 -105 -163
-170 -22 -30 -47 -61 -54 -68 -7 -8 -19 -27 -28 -44 -19 -37 -27 -30 -30 25
-3 43 -12 122 -14 122 -1 0 -4 14 -6 30 -4 26 -33 118 -51 165 -4 8 -7 17 -8
20 -1 3 -9 21 -17 40 -9 19 -14 43 -12 55 3 11 6 57 8 103 2 46 7 86 10 90 4
3 46 6 94 8 48 1 89 3 92 4 3 1 9 2 14 1 4 -1 14 4 22 10 8 6 14 9 14 5 0 -3
22 5 49 18 72 37 145 128 143 178 0 10 3 20 7 22 15 9 0 109 -22 152 -20 40
-44 59 -100 83 -42 18 -64 20 -160 17 -62 -2 -127 -9 -146 -15 -19 -6 -38 -8
-42 -5 -5 3 -9 1 -9 -3 0 -5 -24 -14 -52 -21 l-53 -13 -46 48 c-76 81 -148
120 -239 129 -25 3 -50 7 -57 9 -6 2 -13 2 -15 0z m-1048 -164 c87 -23 162
-55 295 -123 55 -28 102 -55 103 -60 2 -4 9 -8 16 -8 7 0 29 -13 48 -28 30
-24 34 -30 23 -45 -7 -9 -31 -19 -56 -21 -24 -3 -55 -8 -69 -11 -44 -9 -74
-15 -110 -21 -19 -3 -44 -8 -55 -11 -27 -8 -168 -12 -179 -5 -5 3 -22 6 -38 7
-45 4 -118 46 -152 88 -26 33 -31 46 -31 97 0 65 18 99 73 136 33 23 63 24
132 5z m1778 3 c17 -3 32 -10 32 -15 0 -5 6 -9 13 -9 26 0 75 -72 87 -130 19
-89 4 -157 -44 -207 -25 -25 -120 -55 -156 -49 -14 3 -41 7 -60 11 -109 18
-103 12 -127 104 -12 47 -25 91 -29 100 -4 9 -8 18 -9 21 -8 24 -20 46 -28 51
-11 8 86 72 166 110 61 29 74 30 155 13z"/>
<path d="M2445 6320 c2 -4 -12 -6 -33 -5 -37 3 -163 -30 -172 -45 -3 -5 -12
-10 -19 -12 -20 -4 -161 -150 -161 -165 0 -7 -4 -13 -10 -13 -5 0 -10 -7 -10
-15 0 -8 -4 -15 -8 -15 -9 0 -57 -91 -54 -102 1 -5 -3 -8 -10 -8 -6 0 -8 -3
-5 -7 4 -3 3 -11 -2 -17 -24 -30 -69 -209 -76 -301 -2 -22 -4 -42 -5 -45 -10
-24 11 -245 27 -290 3 -8 7 -22 8 -30 3 -20 46 -132 55 -145 4 -5 19 -31 33
-57 33 -60 49 -80 122 -153 86 -87 170 -124 275 -120 80 3 116 12 189 47 63
30 191 142 191 167 0 6 4 11 10 11 5 0 12 11 16 25 3 14 10 25 15 25 5 0 17
18 26 40 10 22 21 40 25 40 5 0 8 4 8 9 0 5 5 22 12 38 6 15 12 34 14 41 1 8
6 21 10 30 9 20 7 16 22 67 21 77 25 111 27 240 3 134 -9 229 -42 327 -10 29
-16 56 -15 61 1 4 -2 7 -8 7 -5 0 -10 5 -10 11 0 21 -41 99 -52 99 -6 0 -9 3
-5 6 3 4 -8 27 -26 53 -72 105 -166 167 -294 193 -40 9 -70 12 -68 8z"/>
<path d="M3117 4744 c-4 -5 -31 -11 -82 -19 -16 -2 -37 -6 -45 -8 -56 -14 -77
-21 -87 -30 -7 -5 -13 -7 -13 -4 0 13 -242 -98 -360 -165 -30 -17 -64 -36 -75
-42 -11 -6 -53 -34 -94 -61 -41 -28 -83 -55 -93 -61 -11 -6 -29 -20 -41 -30
-13 -11 -45 -37 -72 -58 -28 -22 -69 -59 -93 -83 -24 -24 -45 -43 -47 -43 -2
0 -24 -21 -48 -47 -24 -27 -63 -68 -86 -93 -92 -100 -132 -206 -127 -340 2
-47 6 -94 9 -105 9 -32 32 -90 37 -95 3 -3 11 -17 19 -32 19 -37 91 -110 127
-128 16 -8 31 -17 34 -21 9 -9 124 -60 140 -61 3 0 12 -4 21 -9 9 -4 27 -10
40 -13 13 -3 58 -12 99 -21 102 -23 119 -26 160 -30 34 -3 97 -12 150 -21 14
-3 39 -7 55 -9 17 -3 41 -7 55 -10 49 -11 65 -15 88 -19 12 -3 27 -8 32 -11 6
-4 22 -9 37 -11 15 -3 31 -8 37 -12 6 -4 13 -7 16 -8 3 0 19 -6 35 -13 17 -7
30 -11 30 -10 0 1 11 -4 25 -11 14 -8 31 -15 39 -16 8 -2 17 -6 20 -11 3 -4
22 -17 41 -27 63 -35 240 -185 240 -204 0 -4 8 -14 18 -23 9 -8 33 -34 52 -58
19 -24 40 -48 45 -55 6 -6 26 -31 45 -56 19 -25 39 -50 45 -57 5 -6 26 -31 45
-54 137 -168 301 -257 468 -254 42 0 87 6 100 13 12 7 22 10 22 7 0 -3 23 6
50 20 28 14 50 30 50 35 0 6 6 10 13 10 8 0 20 11 27 25 7 14 17 25 21 25 16
0 67 97 101 190 21 58 23 68 32 121 3 19 8 45 11 59 24 121 19 493 -10 695 -3
22 -8 60 -10 85 -4 44 -10 82 -22 145 -3 17 -6 37 -8 45 -8 58 -37 182 -52
220 -4 8 -5 19 -4 24 1 4 -5 19 -14 32 -8 13 -13 24 -10 24 3 0 -4 23 -14 50
-11 28 -16 50 -13 50 4 0 2 4 -4 8 -5 4 -18 25 -28 47 -34 76 -51 110 -58 113
-5 2 -8 8 -8 13 0 21 -86 136 -144 194 -64 63 -150 130 -201 155 -16 8 -32 17
-35 20 -5 5 -59 32 -70 35 -45 12 -90 30 -90 35 0 4 -6 7 -12 7 -7 0 -33 6
-58 12 -25 6 -55 14 -67 16 -13 3 -35 8 -50 11 -33 8 -379 15 -386 8z"/>
<path d="M5535 4648 c-65 -7 -119 -15 -122 -18 -2 -2 -6 -3 -10 -4 -5 -2 -28
-8 -53 -16 -25 -7 -48 -13 -52 -12 -5 1 -8 -2 -8 -8 0 -5 -6 -10 -14 -10 -17
0 -100 -42 -104 -52 -2 -5 -8 -8 -13 -8 -40 0 -241 -178 -309 -272 -18 -27
-36 -48 -39 -48 -11 0 -92 -163 -102 -205 -30 -121 -32 -272 -4 -350 27 -77
77 -146 140 -195 20 -16 96 -54 105 -53 3 0 16 -4 30 -9 26 -11 60 -17 120
-22 19 -2 37 -5 40 -6 3 -1 9 -2 13 -1 5 1 40 4 79 6 38 3 73 7 77 9 4 3 22 8
40 11 19 3 49 12 67 20 19 8 34 11 34 8 0 -3 9 2 20 12 11 10 20 15 20 12 0
-10 133 61 166 88 7 6 46 37 86 69 40 33 94 85 121 117 54 66 117 157 117 170
0 5 5 9 10 9 6 0 10 9 10 19 0 11 6 26 13 33 12 12 23 41 28 73 0 6 5 18 10
27 18 33 29 200 17 253 -11 46 -20 81 -25 95 -4 8 -7 17 -8 20 -7 23 -30 60
-37 60 -4 0 -8 6 -8 13 0 27 -117 116 -175 132 -16 5 -33 9 -37 10 -5 2 -10 4
-13 5 -3 1 -13 3 -22 5 -10 1 -25 4 -33 8 -8 3 -22 6 -30 6 -8 0 -31 2 -50 3
-19 2 -62 0 -95 -4z"/>
<path d="M5582 3171 c-20 -42 -40 -77 -44 -79 -4 -2 -8 -9 -8 -16 0 -7 -12
-37 -27 -67 -15 -30 -26 -57 -25 -61 1 -5 -2 -8 -8 -8 -6 0 -10 -4 -10 -9 0
-14 -83 -185 -93 -192 -5 -3 -9 -10 -9 -15 -1 -15 -14 -46 -57 -132 -22 -46
-40 -83 -39 -85 0 -1 -20 -46 -46 -99 -25 -54 -46 -100 -46 -103 0 -2 -13 -33
-28 -67 -16 -35 -34 -79 -41 -98 -11 -29 -65 -153 -140 -320 -8 -19 -16 -37
-16 -40 -11 -44 -106 -228 -121 -234 -7 -3 -17 1 -22 7 -8 11 -39 85 -40 97
-1 3 -3 12 -6 20 -7 24 -58 204 -60 215 -1 6 -4 15 -7 20 -4 6 -10 24 -14 40
-18 65 -32 93 -55 105 -24 13 -78 11 -97 -3 -7 -5 -13 -6 -13 -2 0 10 -80 -54
-118 -94 -28 -30 -52 -69 -56 -91 -1 -3 -4 -9 -8 -15 -5 -9 -2 -96 6 -160 1
-11 -2 -33 -7 -50 -4 -16 -10 -37 -12 -45 -2 -8 -13 -41 -24 -72 -11 -32 -17
-58 -13 -58 3 0 1 -5 -6 -12 -7 -7 -12 -22 -12 -35 0 -13 -4 -23 -8 -23 -4 0
-8 -9 -9 -21 -1 -11 -14 -57 -28 -102 -15 -45 -29 -88 -31 -96 -5 -15 -14 -10
-18 11 -3 19 -37 129 -47 153 -4 11 -15 45 -24 75 -19 66 -45 149 -52 170 -3
8 -7 20 -9 25 -5 20 -55 181 -61 195 -8 18 -7 17 -17 60 -5 19 -13 41 -18 48
-6 6 -8 12 -4 12 18 0 -27 59 -52 69 -39 16 -63 11 -84 -18 -21 -31 -17 -63
33 -212 22 -68 43 -131 45 -139 13 -49 216 -649 226 -669 19 -35 68 -53 106
-39 17 7 33 19 36 27 3 9 14 40 25 69 11 28 17 52 14 52 -3 0 0 6 6 14 7 8 13
23 15 33 8 41 30 108 38 117 4 6 8 16 8 24 0 27 32 122 40 122 5 0 7 -7 4 -15
-4 -8 -2 -15 3 -15 5 0 9 -8 9 -17 1 -10 4 -34 8 -53 4 -19 9 -47 11 -62 3
-15 9 -38 14 -51 6 -14 7 -27 5 -30 -3 -3 -1 -14 5 -24 5 -11 12 -33 15 -49 2
-16 5 -30 6 -31 2 -2 3 -6 4 -10 5 -20 30 -93 47 -133 l19 -45 158 2 c86 0
160 2 164 2 9 1 72 131 157 324 33 76 77 172 98 213 20 42 36 82 36 90 0 8 4
14 9 14 5 0 7 4 3 9 -3 5 -1 12 5 16 5 3 10 15 10 26 0 10 5 19 10 19 6 0 10
7 10 15 0 9 11 38 25 65 14 27 25 56 25 65 0 8 5 15 10 15 6 0 10 7 10 15 0 8
4 23 10 33 5 9 31 62 56 117 72 155 112 241 166 355 28 58 70 148 95 200 72
150 186 380 221 441 17 31 28 59 25 63 -4 3 -1 6 5 6 7 0 12 4 12 10 0 14 63
145 72 148 4 2 8 7 8 12 0 4 16 36 35 70 19 34 35 63 35 65 0 1 -88 2 -196 2
l-197 -1 -35 -75z"/>
<path d="M2099 2009 c-26 -4 -67 -16 -91 -27 -47 -20 -138 -100 -138 -120 0
-7 -4 -12 -9 -12 -5 0 -16 -17 -24 -37 -11 -26 -16 -32 -17 -18 -1 11 -3 47
-4 80 -1 33 -3 68 -4 78 -2 22 -57 46 -92 41 -59 -10 -63 -37 -61 -444 0 -44
1 -147 0 -160 0 -8 0 -44 0 -80 1 -36 1 -72 0 -80 0 -8 0 -44 0 -80 1 -36 1
-74 1 -85 -1 -236 1 -384 6 -411 5 -28 12 -35 43 -44 49 -13 72 -8 94 22 17
23 19 46 19 247 1 121 2 221 3 221 2 0 14 -19 28 -42 26 -45 89 -108 107 -108
5 0 10 -4 10 -8 0 -15 98 -43 162 -46 76 -4 195 23 241 55 128 88 207 231 224
404 21 225 -28 411 -140 531 -45 48 -136 103 -182 110 -105 16 -136 19 -176
13z m192 -186 c42 -28 88 -87 106 -138 6 -16 14 -39 18 -50 26 -72 23 -364 -4
-385 -3 -3 -7 -13 -9 -24 -5 -25 -51 -95 -82 -123 -88 -79 -270 -96 -340 -31
-11 10 -22 18 -25 18 -25 0 -113 154 -124 218 -7 43 -7 235 1 272 2 14 8 34
12 45 4 11 15 38 23 59 34 92 126 171 215 184 67 10 154 -8 209 -45z"/>
<path d="M3157 2014 c-2 -2 -18 -5 -37 -8 -139 -19 -249 -92 -305 -203 -11
-21 -23 -39 -27 -41 -5 -2 -8 -12 -8 -21 0 -10 -3 -21 -7 -25 -4 -3 -8 -12 -9
-19 -1 -7 -9 -40 -17 -73 -16 -65 -20 -283 -6 -320 4 -11 9 -34 12 -50 13 -78
88 -209 149 -258 18 -14 39 -31 45 -36 20 -16 105 -51 138 -57 65 -11 152 -9
195 4 25 8 51 15 58 15 6 1 12 5 12 10 0 4 4 8 10 8 23 0 103 81 127 130 l18
35 6 -75 c3 -41 9 -83 13 -92 19 -41 115 -38 137 5 8 14 11 170 10 506 -1 267
-2 492 -3 498 -4 36 -72 60 -114 41 -30 -14 -41 -52 -39 -135 2 -67 -7 -81
-23 -35 -5 16 -17 36 -27 45 -9 9 -14 17 -11 17 17 0 -77 75 -121 97 -43 21
-166 47 -176 37z m155 -163 c129 -55 210 -227 202 -431 -6 -152 -40 -250 -113
-318 -60 -57 -86 -66 -186 -66 -98 0 -141 15 -207 73 -45 39 -89 128 -106 211
-17 86 -5 277 21 339 5 14 11 29 11 32 3 23 73 112 103 130 84 52 195 65 275
30z"/>
<path d="M5610 1995 c-19 -7 -39 -13 -45 -14 -26 -4 -135 -76 -141 -93 -3 -10
-9 -18 -13 -18 -5 0 -19 -23 -31 -52 -30 -70 -29 -145 2 -223 13 -34 73 -97
82 -88 3 4 6 2 6 -4 0 -17 101 -55 260 -99 36 -9 75 -24 88 -32 12 -8 22 -11
22 -8 0 16 92 -58 102 -82 32 -81 12 -146 -65 -208 -45 -37 -203 -53 -267 -26
-19 8 -36 14 -38 13 -7 -4 -73 36 -112 69 -43 36 -60 44 -87 41 -14 -1 -40
-50 -37 -68 1 -7 2 -20 3 -29 2 -26 84 -98 142 -126 238 -114 521 -35 611 169
27 60 26 157 -2 220 -23 53 -75 105 -135 135 -36 19 -268 98 -287 98 -4 0 -32
11 -62 25 -85 39 -114 96 -85 172 14 39 46 67 99 87 94 35 198 22 287 -35 34
-23 67 -47 74 -55 20 -25 67 -17 83 14 15 29 13 105 -3 110 -5 2 -22 14 -38
28 -22 20 -74 50 -103 59 -98 31 -249 41 -310 20z"/>
<path d="M2533 508 c-51 -13 -106 -80 -117 -143 -7 -37 18 -83 49 -91 62 -15
155 51 155 111 0 13 -9 16 -47 13 -53 -3 -66 -22 -18 -24 17 -1 31 -2 33 -3 1
-1 -5 -12 -13 -25 -17 -26 -63 -49 -86 -44 -42 9 -51 73 -17 121 45 64 87 79
130 47 24 -18 29 -19 34 -5 14 35 -42 59 -103 43z"/>
<path d="M5151 506 c-9 -10 -9 -16 -1 -21 17 -10 37 12 24 25 -8 8 -15 6 -23
-4z"/>
<path d="M2870 474 c0 -9 -9 -18 -20 -21 -22 -6 -25 -14 -10 -29 7 -7 4 -29
-9 -67 -17 -48 -18 -59 -6 -70 17 -18 75 -10 75 10 0 10 -6 12 -20 8 -30 -9
-34 14 -13 71 13 35 24 49 38 50 38 2 45 4 45 14 0 6 -11 10 -25 10 -18 0 -25
5 -25 20 0 11 -7 20 -15 20 -8 0 -15 -7 -15 -16z"/>
<path d="M5230 474 c0 -9 -9 -18 -20 -21 -11 -3 -20 -12 -20 -20 0 -8 5 -11
10 -8 14 9 13 -5 -9 -67 -10 -30 -16 -59 -12 -65 10 -16 35 -21 59 -12 31 12
29 33 -3 25 -30 -8 -31 2 -9 67 9 26 21 48 27 48 7 1 17 2 22 4 6 1 16 3 23 3
23 3 12 22 -13 22 -18 0 -25 5 -25 20 0 11 -7 20 -15 20 -8 0 -15 -7 -15 -16z"/>
<path d="M2708 448 c-34 -12 -66 -62 -72 -111 -4 -32 -1 -40 20 -54 21 -13 31
-14 63 -4 22 6 42 18 45 26 6 18 5 18 -30 4 -38 -14 -74 -4 -74 21 0 11 6 20
13 21 6 1 32 2 57 4 25 1 48 3 51 4 11 2 17 65 9 81 -10 18 -45 22 -82 8z m56
-40 c-1 -10 -2 -21 -3 -26 -1 -8 -69 -7 -78 2 -4 3 2 15 12 26 23 26 71 24 69
-2z"/>
<path d="M3074 452 c-13 -9 -44 -98 -44 -128 0 -36 43 -53 78 -30 23 14 25 -1
3 -23 -22 -22 -66 -27 -91 -11 -21 13 -32 -11 -12 -27 38 -28 108 -10 134 35
30 50 69 175 58 186 -6 6 -15 -4 -25 -30 -30 -76 -49 -105 -72 -111 -41 -10
-49 10 -29 71 19 55 19 81 0 68z"/>
<path d="M3268 445 c-30 -17 -67 -88 -64 -124 3 -25 30 -51 54 -51 55 0 122
73 122 134 0 51 -55 71 -112 41z m80 -37 c5 -28 -26 -87 -53 -100 -31 -14 -61
-1 -59 26 1 9 2 23 3 31 0 9 12 27 26 41 29 29 78 30 83 2z"/>
<path d="M3415 413 c-33 -93 -34 -100 -19 -122 14 -19 29 -20 75 -6 11 4 19 2
19 -6 0 -9 3 -9 14 0 17 15 68 160 60 173 -10 16 -22 -1 -45 -66 -18 -52 -28
-67 -51 -77 -46 -19 -55 -1 -35 64 9 30 17 61 17 70 0 33 -18 16 -35 -30z"/>
<path d="M3610 458 c0 -2 -13 -41 -29 -88 -16 -46 -27 -88 -24 -93 9 -15 31
14 42 58 12 48 49 95 74 95 17 0 32 18 23 27 -3 4 -16 1 -29 -4 -15 -7 -29 -7
-40 -1 -9 5 -17 8 -17 6z"/>
<path d="M3843 448 c-11 -14 -73 -190 -73 -207 0 -25 29 -9 35 19 7 34 9 34
35 20 29 -15 85 12 110 52 46 76 7 154 -59 118 -12 -6 -21 -6 -28 1 -6 6 -13
6 -20 -3z m94 -34 c17 -46 -49 -130 -85 -108 -9 6 -16 19 -16 28 1 9 2 22 3
30 2 22 49 66 71 66 11 0 23 -7 27 -16z"/>
<path d="M4038 445 c-33 -19 -72 -97 -64 -130 9 -34 38 -48 72 -35 18 7 30 7
40 -1 14 -12 31 20 59 113 16 54 12 76 -10 58 -9 -8 -15 -8 -20 0 -9 14 -45
12 -77 -5z m70 -51 c4 -36 -38 -94 -68 -94 -20 0 -37 19 -34 38 1 6 2 18 3 26
0 7 12 25 26 40 34 37 69 32 73 -10z"/>
<path d="M4184 445 c-4 -9 -7 -49 -7 -88 -2 -92 15 -97 63 -22 19 30 37 55 40
55 3 0 5 -25 5 -55 0 -30 5 -56 10 -57 12 -3 125 164 118 175 -8 13 -24 -4
-64 -67 l-39 -61 0 67 c0 81 -10 82 -60 3 -19 -30 -38 -55 -41 -55 -3 0 -4 24
-2 54 4 53 -11 84 -23 51z"/>
<path d="M4445 438 c-37 -29 -33 -64 10 -79 41 -15 45 -35 9 -51 -20 -9 -30
-9 -46 1 -23 14 -41 3 -28 -18 11 -18 62 -18 95 -1 48 25 44 84 -5 95 -17 4
-30 13 -30 21 0 19 43 28 68 15 24 -13 41 4 23 22 -19 19 -69 16 -96 -5z"/>
<path d="M4703 445 c-35 -15 -60 -55 -68 -109 -5 -30 -2 -37 20 -52 57 -37
141 21 152 107 9 62 -34 85 -104 54z m73 -39 c10 -42 -34 -106 -72 -106 -47 0
-51 64 -7 112 25 27 71 23 79 -6z"/>
<path d="M4863 448 c-20 -27 -61 -156 -53 -168 9 -14 38 33 46 73 9 51 70 96
94 70 5 -4 0 -35 -11 -68 -19 -61 -18 -105 2 -75 5 8 18 43 29 78 15 47 17 69
10 83 -11 20 -45 25 -70 9 -9 -5 -19 -5 -26 1 -7 6 -15 5 -21 -3z"/>
<path d="M5132 444 c-21 -42 -53 -154 -46 -165 9 -15 19 4 50 93 14 44 21 75
15 81 -6 6 -13 2 -19 -9z"/>
</g>
</svg>
